<svg width="244" height="111" viewBox="0 0 244 111" fill="none" xmlns="http://www.w3.org/2000/svg">
<g filter="url(#filter0_dd_59_985)">
<path d="M14.9 14H69.9C69.9 14.9333 69.9333 16.1667 70 17.7C70.0667 19.1667 69.8333 20.6667 69.3 22.2C68.7667 23.6667 67.7667 24.9333 66.3 26C64.8333 27.0667 62.6 27.6 59.6 27.6H31.4V41.5H66.1V53.3H31.4V84H14.9V14ZM90.2867 84H83.7867C82.1867 84 80.7534 83.9333 79.4867 83.8C78.2867 83.6 77.2534 83.2333 76.3867 82.7C75.5201 82.1 74.8534 81.3 74.3867 80.3C73.9867 79.3 73.7867 78 73.7867 76.4V14H80.2867C81.8867 14 83.2867 14.1 84.4867 14.3C85.7534 14.4333 86.7867 14.7667 87.5867 15.3C88.4534 15.8333 89.1201 16.6 89.5867 17.6C90.0534 18.6 90.2867 19.9 90.2867 21.5V84ZM94.0016 59.3C94.0016 54.8333 94.5349 50.9667 95.6016 47.7C96.6682 44.3667 98.3682 41.6667 100.702 39.6C103.035 37.4667 106.035 35.9 109.702 34.9C113.368 33.8333 117.835 33.3 123.102 33.3C128.435 33.3 133.002 33.8 136.802 34.8C140.602 35.8 143.702 37.3667 146.102 39.5C148.502 41.5667 150.268 44.2667 151.402 47.6C152.535 50.8667 153.102 54.7667 153.102 59.3C153.102 63.8333 152.535 67.7333 151.402 71C150.268 74.2 148.502 76.8667 146.102 79C143.702 81.0667 140.602 82.6 136.802 83.6C133.002 84.6 128.435 85.1 123.102 85.1C117.835 85.1 113.368 84.6 109.702 83.6C106.035 82.6 103.035 81.0667 100.702 79C98.3682 76.8667 96.6682 74.2 95.6016 71C94.5349 67.7333 94.0016 63.8333 94.0016 59.3ZM110.502 60.3C110.502 65.1 111.468 68.6 113.402 70.8C115.402 73 118.702 74.1 123.302 74.1C128.102 74.1 131.502 73 133.502 70.8C135.502 68.6 136.502 65.1 136.502 60.3C136.502 55.3 135.502 51.7333 133.502 49.6C131.502 47.4667 128.102 46.4 123.302 46.4C118.702 46.4 115.402 47.4667 113.402 49.6C111.468 51.7333 110.502 55.3 110.502 60.3ZM218.977 84H212.477C209.877 84 207.71 83.8667 205.977 83.6C204.31 83.3333 202.943 82.9333 201.877 82.4C200.81 81.8667 199.943 81.1667 199.277 80.3C198.677 79.3667 198.143 78.2667 197.677 77L191.477 52.4L185.177 77C184.777 78.2667 184.277 79.3667 183.677 80.3C183.077 81.1667 182.243 81.8667 181.177 82.4C180.11 82.9333 178.71 83.3333 176.977 83.6C175.31 83.8667 173.177 84 170.577 84H163.577L153.377 34H169.877L175.877 63.9C175.943 64.5 176.043 65.2667 176.177 66.2C176.31 67.0667 176.41 67.7667 176.477 68.3C176.477 68.0333 176.543 67.4333 176.677 66.5C176.877 65.5 177.043 64.6333 177.177 63.9L184.977 34H198.077L205.677 63.9C205.81 64.3667 205.91 64.8667 205.977 65.4C206.11 65.8667 206.21 66.3333 206.277 66.8C206.343 67.3333 206.41 67.8667 206.477 68.4C206.41 67.9333 206.41 67.4333 206.477 66.9C206.477 66.4333 206.51 65.9667 206.577 65.5C206.643 64.9667 206.743 64.4333 206.877 63.9L213.077 34H229.577L218.977 84Z" fill="#62E59B"/>
</g>
<defs>
<filter id="filter0_dd_59_985" x="0.899902" y="0" width="242.677" height="99.1001" filterUnits="userSpaceOnUse" color-interpolation-filters="sRGB">
<feFlood flood-opacity="0" result="BackgroundImageFix"/>
<feColorMatrix in="SourceAlpha" type="matrix" values="0 0 0 0 0 0 0 0 0 0 0 0 0 0 0 0 0 0 127 0" result="hardAlpha"/>
<feOffset dx="4" dy="4"/>
<feGaussianBlur stdDeviation="5"/>
<feComposite in2="hardAlpha" operator="out"/>
<feColorMatrix type="matrix" values="0 0 0 0 0.776217 0 0 0 0 1 0 0 0 0 0.830501 0 0 0 1 0"/>
<feBlend mode="normal" in2="BackgroundImageFix" result="effect1_dropShadow_59_985"/>
<feColorMatrix in="SourceAlpha" type="matrix" values="0 0 0 0 0 0 0 0 0 0 0 0 0 0 0 0 0 0 127 0" result="hardAlpha"/>
<feOffset dx="-4" dy="-4"/>
<feGaussianBlur stdDeviation="5"/>
<feComposite in2="hardAlpha" operator="out"/>
<feColorMatrix type="matrix" values="0 0 0 0 0.776471 0 0 0 0 1 0 0 0 0 0.831373 0 0 0 1 0"/>
<feBlend mode="normal" in2="effect1_dropShadow_59_985" result="effect2_dropShadow_59_985"/>
<feBlend mode="normal" in="SourceGraphic" in2="effect2_dropShadow_59_985" result="shape"/>
</filter>
</defs>
</svg>
