<svg width="350" height="115" viewBox="0 0 350 115" fill="none" xmlns="http://www.w3.org/2000/svg">
<g filter="url(#filter0_d_122_777)">
<rect x="6" y="6" width="330" height="94.0323" rx="17.7419" fill="white"/>
</g>
<path d="M27.999 28.8366C30.1197 28.8366 31.6478 30.7702 31.6634 33.8109C31.6478 36.8828 30.1197 38.8008 27.999 38.8008C25.8627 38.8008 24.3189 36.8828 24.3345 33.8109C24.3189 30.7702 25.8627 28.8366 27.999 28.8366ZM27.999 30.3959C26.8139 30.3959 26.003 31.659 26.003 33.8109C26.003 35.9784 26.8139 37.2415 27.999 37.2415C29.1997 37.2415 29.9949 35.9784 29.9949 33.8109C29.9949 31.659 29.1997 30.3959 27.999 30.3959ZM35.2499 27.8074V33.2184H37.4174V34.6841H35.2499V41.9039H33.5191V27.8074H35.2499ZM49.7831 27.8074V41.9039H48.0366V27.8074H49.7831ZM45.5728 29.3044C45.5728 33.499 43.9511 37.07 39.008 39.409L38.1036 38.0212C41.7914 36.2669 43.5067 33.8811 43.8108 30.6766H38.8209V29.3044H45.5728ZM56.8469 31.1912C56.8313 33.7018 58.0944 36.2591 60.2775 37.3039L59.2172 38.6917C57.689 37.9198 56.5896 36.4306 55.9893 34.6374C55.3734 36.5554 54.2194 38.1459 52.6055 38.9568L51.5452 37.5689C53.8062 36.493 55.1005 33.7953 55.1161 31.1912V28.9457H56.8469V31.1912ZM62.8504 27.8074V33.3275H65.0179V34.8089H62.8504V41.9039H61.1196V27.8074H62.8504ZM70.6628 31.8149C70.6628 33.998 71.957 36.4774 74.1869 37.5066L73.2201 38.8788C71.6296 38.1303 70.4523 36.6177 69.8207 34.8557C69.1814 36.7893 67.9495 38.4422 66.3278 39.2219L65.3142 37.8652C67.5597 36.8049 68.9163 34.154 68.9319 31.8149V30.6298H65.86V29.1952H73.61V30.6298H70.6628V31.8149ZM76.6507 27.8074V33.2963H78.8182V34.7465H76.6507V41.9039H74.9198V27.8074H76.6507ZM91.1215 27.8074V35.7445H89.4062V27.8074H91.1215ZM81.9837 28.6339V33.4679C84.1901 33.4445 86.0925 33.2885 88.0807 32.8597L88.299 34.2943C86.0536 34.7465 83.9328 34.918 81.4379 34.9336H80.2372V28.6339H81.9837ZM91.1215 36.3526V41.7168H81.8121V36.3526H91.1215ZM83.5118 37.7093V40.3446H89.4374V37.7093H83.5118ZM97.7799 28.7898C100.01 28.7742 101.647 30.1932 101.663 32.1892C101.647 34.2007 100.01 35.6042 97.7799 35.6042C95.5656 35.6042 93.9127 34.2007 93.9127 32.1892C93.9127 30.1932 95.5656 28.7742 97.7799 28.7898ZM97.7799 30.2868C96.548 30.2868 95.628 31.0197 95.628 32.1892C95.628 33.3743 96.548 34.0916 97.7799 34.0916C99.0274 34.0916 99.963 33.3743 99.963 32.1892C99.963 31.0197 99.0274 30.2868 97.7799 30.2868ZM104.953 27.8074V41.9195H103.222V27.8074H104.953ZM93.2734 37.5533C95.8151 37.5533 99.3392 37.5222 102.38 37.0855L102.52 38.3486C99.3548 38.9568 95.971 38.9724 93.4917 38.9724L93.2734 37.5533ZM123.681 38.7852V40.2042H110.8V38.7852H116.352V36.0408H112.219V28.743H113.95V31.0509H120.484V28.743H122.215V36.0408H118.067V38.7852H123.681ZM113.95 34.6374H120.484V32.4387H113.95V34.6374ZM137.465 35.7133V37.1167H134.331V41.9039H132.569V37.1167H129.45V41.9039H127.673V37.1167H124.585V35.7133H137.465ZM130.994 28.3064C133.988 28.322 136.078 29.5383 136.078 31.4563C136.078 33.3431 133.988 34.5438 130.994 34.5438C127.984 34.5438 125.926 33.3431 125.942 31.4563C125.926 29.5383 127.984 28.322 130.994 28.3064ZM130.994 29.7098C128.998 29.7098 127.704 30.3492 127.719 31.4563C127.704 32.5322 128.998 33.1716 130.994 33.1716C132.99 33.1716 134.284 32.5322 134.284 31.4563C134.284 30.3492 132.99 29.7098 130.994 29.7098ZM154.182 27.8074V41.9039H152.419V27.8074H154.182ZM145.683 31.6746C145.683 33.2262 145.878 35.1519 146.853 36.5866C147.812 35.1753 147.991 33.2729 148.007 31.6746V28.9769H149.659V31.6746C149.659 33.7797 150.018 36.2279 151.796 37.5533L150.735 38.7852C149.745 38.0523 149.16 36.914 148.817 35.6198C148.474 36.953 147.874 38.1459 146.853 38.8944C145.839 38.1459 145.231 36.953 144.888 35.6198C144.545 36.8906 143.983 37.9978 143.048 38.7229L141.925 37.5533C143.703 36.1811 144.061 33.7485 144.061 31.6746V28.9769H145.683V31.6746ZM167.109 27.8074V31.4407H169.073V32.8909H167.109V37.1323H165.378V27.8074H167.109ZM163.538 36.8516C163.522 38.5513 165.269 40.0639 168.107 40.4693L167.42 41.826C165.237 41.4751 163.538 40.4849 162.696 39.0815C161.822 40.4849 160.123 41.4751 157.94 41.826L157.253 40.4693C160.076 40.0639 161.807 38.5513 161.807 36.8516V36.4618H163.538V36.8516ZM159.951 28.7274C162.119 28.743 163.74 30.1308 163.756 32.158C163.74 34.1696 162.119 35.573 159.951 35.5574C157.768 35.573 156.131 34.1696 156.146 32.158C156.131 30.1308 157.768 28.743 159.951 28.7274ZM159.951 30.2088C158.735 30.2088 157.83 30.9573 157.846 32.158C157.83 33.3275 158.735 34.0916 159.951 34.0916C161.152 34.0916 162.056 33.3275 162.056 32.158C162.056 30.9573 161.152 30.2088 159.951 30.2088Z" fill="#313131"/>
<path d="M36.1969 77.9971C31.4972 77.9971 28.1619 75.4501 28.071 71.751H32.043C32.1643 73.5096 33.9229 74.6618 36.1969 74.6618C38.6226 74.6618 40.3508 73.3277 40.3508 71.3871C40.3508 69.4163 38.6529 67.9912 35.8027 67.9912H33.8319V64.9592H35.8027C38.1374 64.9592 39.7747 63.6554 39.7444 61.7452C39.7747 59.8956 38.38 58.6525 36.2272 58.6525C34.1654 58.6525 32.3765 59.8046 32.3159 61.6542H28.5258C28.6167 57.9551 31.952 55.4385 36.2575 55.4385C40.7147 55.4385 43.5952 58.1673 43.5648 61.5329C43.5952 63.9889 41.9578 65.7778 39.5625 66.2629V66.4449C42.6552 66.8694 44.4138 68.8402 44.3835 71.5994C44.4138 75.2985 40.9573 77.9971 36.1969 77.9971ZM55.9357 77.9971C50.6599 77.9971 47.5065 73.9038 47.5065 66.7178C47.5065 59.5621 50.6599 55.4385 55.9357 55.4385C61.1812 55.4385 64.3648 59.5621 64.3648 66.7178C64.3648 73.9038 61.2115 77.9971 55.9357 77.9971ZM55.9357 74.6921C58.6949 74.6921 60.3928 71.9936 60.3928 66.7178C60.3928 61.4723 58.6645 58.7131 55.9357 58.7131C53.2068 58.7131 51.4785 61.4723 51.4785 66.7178C51.4785 71.9936 53.1765 74.6921 55.9357 74.6921ZM75.7654 77.9971C70.4896 77.9971 67.3363 73.9038 67.3363 66.7178C67.3363 59.5621 70.4896 55.4385 75.7654 55.4385C81.0109 55.4385 84.1946 59.5621 84.1946 66.7178C84.1946 73.9038 81.0412 77.9971 75.7654 77.9971ZM75.7654 74.6921C78.5246 74.6921 80.2225 71.9936 80.2225 66.7178C80.2225 61.4723 78.4943 58.7131 75.7654 58.7131C73.0365 58.7131 71.3083 61.4723 71.3083 66.7178C71.3083 71.9936 73.0062 74.6921 75.7654 74.6921Z" fill="#009331"/>
<path d="M100.657 63.4094V75.1565H99.1885V63.4094H100.657ZM93.5748 66.6321C93.5748 67.925 93.7372 69.5299 94.5494 70.7254C95.3486 69.5494 95.498 67.964 95.511 66.6321V64.384H96.8884V66.6321C96.8884 68.3863 97.1873 70.4265 98.6687 71.531L97.785 72.5576C96.9599 71.9469 96.4726 70.9983 96.1867 69.9197C95.9008 71.0307 95.4005 72.0248 94.5494 72.6486C93.7047 72.0248 93.198 71.0307 92.9121 69.9197C92.6262 70.9788 92.1584 71.9014 91.3787 72.5056L90.4431 71.531C91.9245 70.3875 92.2234 68.3604 92.2234 66.6321V64.384H93.5748V66.6321ZM111.429 63.4094V66.4372H113.067V67.6456H111.429V71.1802H109.987V63.4094H111.429ZM108.454 70.9463C108.441 72.3627 109.896 73.6232 112.261 73.961L111.689 75.0915C109.87 74.7992 108.454 73.974 107.752 72.8045C107.024 73.974 105.608 74.7992 103.789 75.0915L103.217 73.961C105.569 73.6232 107.011 72.3627 107.011 70.9463V70.6214H108.454V70.9463ZM105.465 64.1761C107.271 64.1891 108.623 65.3456 108.636 67.0349C108.623 68.7112 107.271 69.8807 105.465 69.8677C103.646 69.8807 102.281 68.7112 102.294 67.0349C102.281 65.3456 103.646 64.1891 105.465 64.1761ZM105.465 65.4106C104.451 65.4106 103.698 66.0343 103.711 67.0349C103.698 68.0095 104.451 68.6462 105.465 68.6462C106.465 68.6462 107.219 68.0095 107.219 67.0349C107.219 66.0343 106.465 65.4106 105.465 65.4106Z" fill="#009331"/>
<rect x="216.242" y="31.7261" width="101.129" height="40.8065" rx="8.87097" fill="#62E59B"/>
<path d="M244.181 49.5845V50.9021H242.796V56.0376H241.174V45.7329H242.796V49.5845H244.181ZM236.512 46.7127V52.2085C237.773 52.1804 239.141 52.0565 240.566 51.7806L240.735 53.1207C239.023 53.4699 237.323 53.5487 235.813 53.5487H234.89V46.7127H236.512ZM247.897 46.4086C249.542 46.3973 250.781 47.4785 250.792 48.9763C250.781 50.4742 249.542 51.5553 247.897 51.5441C246.265 51.5553 245.003 50.4742 245.003 48.9763C245.003 47.4785 246.265 46.3973 247.897 46.4086ZM247.897 47.8051C247.177 47.8051 246.614 48.2218 246.614 48.9763C246.614 49.7534 247.177 50.1476 247.897 50.1476C248.641 50.1476 249.204 49.7534 249.215 48.9763C249.204 48.2218 248.641 47.8051 247.897 47.8051ZM253.303 45.7329V56.0939H251.693V45.7329H253.303ZM244.609 52.7266C246.422 52.7266 248.956 52.7041 251.141 52.4L251.265 53.5712C249.001 54.0104 246.58 54.033 244.789 54.033L244.609 52.7266ZM265.86 45.7329V53.2446H264.25V49.7872H262.876V48.5033H264.25V45.7329H265.86ZM262.91 46.5212V47.8164H262.133V50.553C262.516 50.5249 262.893 50.4911 263.259 50.4517L263.36 51.6116C261.333 51.972 259.036 52.0283 257.267 52.0171L257.099 50.6882H258.123V47.8164H257.358V46.5212H262.91ZM266.097 54.6073V55.9025H258.923V52.6252H260.556V54.6073H266.097ZM259.689 50.6656L260.556 50.6319V47.8164H259.689V50.6656ZM275.76 45.7329V51.8594H274.138V45.7329H275.76ZM272.606 46.4987V47.7826H269.261V50.0575C271.131 50.0406 272.218 49.9618 273.395 49.7309L273.541 51.026C272.19 51.3076 270.939 51.3526 268.563 51.3526H267.651V46.4987H272.606ZM272.223 51.9833C274.397 51.972 275.782 52.7378 275.793 54.0442C275.782 55.3281 274.397 56.0939 272.223 56.0939C270.005 56.0939 268.642 55.3281 268.642 54.0442C268.642 52.7378 270.005 51.972 272.223 51.9833ZM272.223 53.2559C270.917 53.2559 270.275 53.4699 270.275 54.0442C270.275 54.5848 270.917 54.8326 272.223 54.8326C273.518 54.8326 274.194 54.5848 274.194 54.0442C274.194 53.4699 273.518 53.2559 272.223 53.2559ZM288.553 45.7329V56.0714H287.01V50.9584H286.199V55.5759H284.69V45.8906H286.199V49.6633H287.01V45.7329H288.553ZM281.627 46.8478V52.1747C282.399 52.1522 283.249 52.079 284.161 51.9045L284.319 53.3009C282.956 53.5374 281.774 53.605 280.726 53.5937H280.005V46.8478H281.627ZM298.34 52.2761V56.0714H296.729V53.5487H291.2V52.2761H298.34ZM298.34 45.7329V51.8594H296.729V50.5981H294.533C294.027 51.1105 293.306 51.4202 292.484 51.4202C290.907 51.4202 289.702 50.339 289.713 48.8299C289.702 47.3434 290.907 46.2735 292.484 46.2735C293.306 46.2735 294.027 46.5775 294.533 47.0843H296.729V45.7329H298.34ZM292.484 47.6474C291.752 47.6474 291.245 48.0754 291.245 48.8299C291.245 49.6183 291.752 50.0462 292.484 50.0462C293.159 50.0462 293.689 49.6183 293.689 48.8299C293.689 48.0754 293.159 47.6474 292.484 47.6474ZM295.187 49.3142H296.729V48.3795H295.198C295.215 48.5259 295.232 48.6723 295.232 48.8299C295.232 48.9989 295.215 49.1565 295.187 49.3142Z" fill="white"/>
<defs>
<filter id="filter0_d_122_777" x="0" y="0" width="350" height="114.032" filterUnits="userSpaceOnUse" color-interpolation-filters="sRGB">
<feFlood flood-opacity="0" result="BackgroundImageFix"/>
<feColorMatrix in="SourceAlpha" type="matrix" values="0 0 0 0 0 0 0 0 0 0 0 0 0 0 0 0 0 0 127 0" result="hardAlpha"/>
<feOffset dx="4" dy="4"/>
<feGaussianBlur stdDeviation="5"/>
<feComposite in2="hardAlpha" operator="out"/>
<feColorMatrix type="matrix" values="0 0 0 0 0 0 0 0 0 0 0 0 0 0 0 0 0 0 0.1 0"/>
<feBlend mode="normal" in2="BackgroundImageFix" result="effect1_dropShadow_122_777"/>
<feBlend mode="normal" in="SourceGraphic" in2="effect1_dropShadow_122_777" result="shape"/>
</filter>
</defs>
</svg>
