<svg width="88" height="42" viewBox="0 0 88 42" fill="none" xmlns="http://www.w3.org/2000/svg">
<path d="M0.76 3H22.76C22.76 3.37333 22.7733 3.86666 22.8 4.48C22.8267 5.06667 22.7333 5.66667 22.52 6.28C22.3067 6.86667 21.9067 7.37333 21.32 7.8C20.7333 8.22667 19.84 8.44 18.64 8.44H7.36V14H21.24V18.72H7.36V31H0.76V3ZM30.9147 31H28.3147C27.6747 31 27.1014 30.9733 26.5947 30.92C26.1147 30.84 25.7014 30.6933 25.3547 30.48C25.008 30.24 24.7414 29.92 24.5547 29.52C24.3947 29.12 24.3147 28.6 24.3147 27.96V3H26.9147C27.5547 3 28.1147 3.04 28.5947 3.12C29.1014 3.17333 29.5147 3.30666 29.8347 3.52C30.1814 3.73333 30.448 4.04 30.6347 4.44C30.8214 4.84 30.9147 5.36 30.9147 6V31ZM32.4006 21.12C32.4006 19.3333 32.614 17.7867 33.0406 16.48C33.4673 15.1467 34.1473 14.0667 35.0806 13.24C36.014 12.3867 37.214 11.76 38.6806 11.36C40.1473 10.9333 41.934 10.72 44.0406 10.72C46.174 10.72 48.0006 10.92 49.5206 11.32C51.0406 11.72 52.2806 12.3467 53.2406 13.2C54.2006 14.0267 54.9073 15.1067 55.3606 16.44C55.814 17.7467 56.0406 19.3067 56.0406 21.12C56.0406 22.9333 55.814 24.4933 55.3606 25.8C54.9073 27.08 54.2006 28.1467 53.2406 29C52.2806 29.8267 51.0406 30.44 49.5206 30.84C48.0006 31.24 46.174 31.44 44.0406 31.44C41.934 31.44 40.1473 31.24 38.6806 30.84C37.214 30.44 36.014 29.8267 35.0806 29C34.1473 28.1467 33.4673 27.08 33.0406 25.8C32.614 24.4933 32.4006 22.9333 32.4006 21.12ZM39.0006 21.52C39.0006 23.44 39.3873 24.84 40.1606 25.72C40.9606 26.6 42.2806 27.04 44.1206 27.04C46.0406 27.04 47.4006 26.6 48.2006 25.72C49.0006 24.84 49.4006 23.44 49.4006 21.52C49.4006 19.52 49.0006 18.0933 48.2006 17.24C47.4006 16.3867 46.0406 15.96 44.1206 15.96C42.2806 15.96 40.9606 16.3867 40.1606 17.24C39.3873 18.0933 39.0006 19.52 39.0006 21.52ZM82.3906 31H79.7906C78.7506 31 77.884 30.9467 77.1906 30.84C76.524 30.7333 75.9773 30.5733 75.5506 30.36C75.124 30.1467 74.7773 29.8667 74.5106 29.52C74.2706 29.1467 74.0573 28.7067 73.8706 28.2L71.3906 18.36L68.8706 28.2C68.7106 28.7067 68.5106 29.1467 68.2706 29.52C68.0306 29.8667 67.6973 30.1467 67.2706 30.36C66.844 30.5733 66.284 30.7333 65.5906 30.84C64.924 30.9467 64.0706 31 63.0306 31H60.2306L56.1506 11H62.7506L65.1506 22.96C65.1773 23.2 65.2173 23.5067 65.2706 23.88C65.324 24.2267 65.364 24.5067 65.3906 24.72C65.3906 24.6133 65.4173 24.3733 65.4706 24C65.5506 23.6 65.6173 23.2533 65.6706 22.96L68.7906 11H74.0306L77.0706 22.96C77.124 23.1467 77.164 23.3467 77.1906 23.56C77.244 23.7467 77.284 23.9333 77.3106 24.12C77.3373 24.3333 77.364 24.5467 77.3906 24.76C77.364 24.5733 77.364 24.3733 77.3906 24.16C77.3906 23.9733 77.404 23.7867 77.4306 23.6C77.4573 23.3867 77.4973 23.1733 77.5506 22.96L80.0306 11H86.6306L82.3906 31Z" fill="white"/>
</svg>
