<svg width="109" height="36" viewBox="0 0 109 36" fill="none" xmlns="http://www.w3.org/2000/svg">
<path d="M0.95 -2.38419e-06H28.45C28.45 0.466664 28.4667 1.08333 28.5 1.85C28.5333 2.58333 28.4167 3.33333 28.15 4.1C27.8833 4.83333 27.3833 5.46667 26.65 6C25.9167 6.53333 24.8 6.8 23.3 6.8H9.2V13.75H26.55V19.65H9.2V35H0.95V-2.38419e-06ZM38.6434 35H35.3934C34.5934 35 33.8767 34.9667 33.2434 34.9C32.6434 34.8 32.1267 34.6167 31.6934 34.35C31.26 34.05 30.9267 33.65 30.6934 33.15C30.4934 32.65 30.3934 32 30.3934 31.2V-2.38419e-06H33.6434C34.4434 -2.38419e-06 35.1434 0.049998 35.7434 0.149999C36.3767 0.216664 36.8934 0.383331 37.2934 0.649998C37.7267 0.916665 38.06 1.3 38.2934 1.8C38.5267 2.3 38.6434 2.95 38.6434 3.75V35ZM40.5008 22.65C40.5008 20.4167 40.7674 18.4833 41.3008 16.85C41.8341 15.1833 42.6841 13.8333 43.8508 12.8C45.0174 11.7333 46.5174 10.95 48.3508 10.45C50.1841 9.91667 52.4174 9.65 55.0508 9.65C57.7174 9.65 60.0008 9.9 61.9008 10.4C63.8008 10.9 65.3508 11.6833 66.5508 12.75C67.7508 13.7833 68.6341 15.1333 69.2008 16.8C69.7674 18.4333 70.0508 20.3833 70.0508 22.65C70.0508 24.9167 69.7674 26.8667 69.2008 28.5C68.6341 30.1 67.7508 31.4333 66.5508 32.5C65.3508 33.5333 63.8008 34.3 61.9008 34.8C60.0008 35.3 57.7174 35.55 55.0508 35.55C52.4174 35.55 50.1841 35.3 48.3508 34.8C46.5174 34.3 45.0174 33.5333 43.8508 32.5C42.6841 31.4333 41.8341 30.1 41.3008 28.5C40.7674 26.8667 40.5008 24.9167 40.5008 22.65ZM48.7508 23.15C48.7508 25.55 49.2341 27.3 50.2008 28.4C51.2008 29.5 52.8508 30.05 55.1508 30.05C57.5508 30.05 59.2508 29.5 60.2508 28.4C61.2508 27.3 61.7508 25.55 61.7508 23.15C61.7508 20.65 61.2508 18.8667 60.2508 17.8C59.2508 16.7333 57.5508 16.2 55.1508 16.2C52.8508 16.2 51.2008 16.7333 50.2008 17.8C49.2341 18.8667 48.7508 20.65 48.7508 23.15ZM102.988 35H99.7383C98.4383 35 97.3549 34.9333 96.4883 34.8C95.6549 34.6667 94.9716 34.4667 94.4383 34.2C93.9049 33.9333 93.4716 33.5833 93.1383 33.15C92.8383 32.6833 92.5716 32.1333 92.3383 31.5L89.2383 19.2L86.0883 31.5C85.8883 32.1333 85.6383 32.6833 85.3383 33.15C85.0383 33.5833 84.6216 33.9333 84.0883 34.2C83.5549 34.4667 82.8549 34.6667 81.9883 34.8C81.1549 34.9333 80.0883 35 78.7883 35H75.2883L70.1883 10H78.4383L81.4383 24.95C81.4716 25.25 81.5216 25.6333 81.5883 26.1C81.6549 26.5333 81.7049 26.8833 81.7383 27.15C81.7383 27.0167 81.7716 26.7167 81.8383 26.25C81.9383 25.75 82.0216 25.3167 82.0883 24.95L85.9883 10H92.5383L96.3383 24.95C96.4049 25.1833 96.4549 25.4333 96.4883 25.7C96.5549 25.9333 96.605 26.1667 96.6383 26.4C96.6716 26.6667 96.7049 26.9333 96.7383 27.2C96.7049 26.9667 96.7049 26.7167 96.7383 26.45C96.7383 26.2167 96.7549 25.9833 96.7883 25.75C96.8216 25.4833 96.8716 25.2167 96.9383 24.95L100.038 10H108.288L102.988 35Z" fill="#62E59B"/>
</svg>
