<svg width="16" height="12" viewBox="0 0 16 12" fill="none" xmlns="http://www.w3.org/2000/svg">
<path d="M5.44825 8.75738C6.72891 7.67511 8.60509 7.67511 9.88575 8.75738C9.9501 8.81559 9.98749 8.8982 9.98926 8.98492C9.99092 9.07155 9.95644 9.15468 9.89454 9.21538L7.88965 11.2378C7.83087 11.2972 7.7506 11.3306 7.667 11.3306C7.5834 11.3306 7.50311 11.2973 7.44434 11.2378L5.43848 9.21538C5.37688 9.15469 5.34303 9.07134 5.34473 8.98492C5.34657 8.89824 5.3839 8.81553 5.44825 8.75738ZM2.77247 6.06011C5.5316 3.49573 9.80432 3.49579 12.5635 6.06011C12.6258 6.12025 12.6612 6.20307 12.6621 6.2896C12.6629 6.37595 12.6293 6.4588 12.5684 6.52007L11.4092 7.69097C11.2897 7.81027 11.0971 7.81213 10.9746 7.69585C10.0685 6.87609 8.88933 6.42234 7.667 6.42242C6.4456 6.42294 5.26773 6.87678 4.36231 7.69585C4.23976 7.8122 4.04623 7.81048 3.92676 7.69097L2.76856 6.52007C2.70748 6.45887 2.67313 6.37602 2.67383 6.2896C2.67465 6.20313 2.71026 6.12023 2.77247 6.06011ZM0.0966847 3.36968C4.3285 -0.682386 11.0044 -0.682232 15.2363 3.36968C15.2976 3.42988 15.3325 3.51235 15.333 3.5982C15.3335 3.68396 15.2998 3.76683 15.2393 3.82769L14.0791 4.99761C13.9595 5.11771 13.765 5.11879 13.6436 5.00054C12.0312 3.46914 9.89158 2.6149 7.667 2.6148C5.44211 2.61481 3.30199 3.46891 1.68946 5.00054C1.56818 5.11891 1.37441 5.11772 1.25489 4.99761L0.0937551 3.82769C0.0333244 3.76681 -0.000475824 3.68393 5.06194e-06 3.5982C0.000570337 3.51235 0.0353826 3.42984 0.0966847 3.36968Z" fill="black"/>
</svg>
